<?xml version="1.0" encoding="iso-8859-1"?>
<!-- Generator: Adobe Illustrator 19.0.0, SVG Export Plug-In . SVG Version: 6.00 Build 0)  -->
<svg version="1.1" id="Layer_1" xmlns="http://www.w3.org/2000/svg" xmlns:xlink="http://www.w3.org/1999/xlink" x="0px" y="0px"
	 viewBox="0 0 509 509" style="enable-background:new 0 0 509 509;" xml:space="preserve">
<circle style="fill:#886C60;" cx="254.5" cy="254.5" r="254.5"/>
<polygon style="fill:#080708;" points="333.3,383.4 175.7,383.4 126.3,355.2 382.7,355.2 "/>
<g>
	<path style="fill:#333842;" d="M33.9,344.8v58.3c0,5.5,4.5,10,10,10h47.6c5.5,0,10-4.5,10-10v-58.3H33.9z"/>
	<path style="fill:#333842;" d="M407.6,344.8v58.3c0,5.5,4.5,10,10,10h47.6c5.5,0,10-4.5,10-10v-58.3H407.6z"/>
	<rect x="88.2" y="347.3" style="fill:#333842;" width="332.6" height="23.1"/>
</g>
<path style="fill:#FBD303;" d="M480.1,214.2c-2.6-6.4-20.5-29.4-25-29.4s-19.8-4.5-22.4-8.3s-40.3-69.8-53.1-74.9
	c-11.1-4.4-123.3-5.7-125.1-5.7c-1.8,0-114.1,1.3-125.1,5.7c-12.8,5.1-50.6,71-53.1,74.9c-2.6,3.8-17.9,8.3-22.4,8.3
	s-22.4,23-25,29.4s5.1,136.3,5.8,147.2c0.6,10.9,64.9,9.8,66.6,7.7c6.5-8.3,10.9-8.3,10.9-8.3l142.4,5l142.4-5c0,0,4.4,0,10.9,8.3
	c1.6,2.1,65.9,3.2,66.6-7.7C475,350.6,482.7,220.6,480.1,214.2z"/>
<g>
	<polygon style="fill:#F8B517;" points="81.1,182.9 68.8,154 30.5,154 20.7,168.4 30.5,182.9 69.4,182.9 	"/>
	<polygon style="fill:#F8B517;" points="427.9,182.9 440.2,154 478.5,154 488.3,168.4 478.5,182.9 439.6,182.9 	"/>
</g>
<path style="fill:#333842;" d="M254.5,239.1L60.2,227.8v16.5c0,8.3,6.1,15.3,14.4,16.4l180,23.9l180-23.9
	c8.2-1.1,14.4-8.1,14.4-16.4v-16.5L254.5,239.1z"/>
<path style="fill:#6EB1E1;" d="M418.7,170.7c-11.3-17.6-22.6-36.6-33.9-56.4c-0.8-1.5-2.3-2.4-3.9-2.5c-84.3-4.1-168.7-4.1-252.9,0
	c-1.6,0.1-3.1,1-3.9,2.5c-11.3,19.8-22.6,38.7-33.9,56.4c-1.9,3,0.3,7,3.9,7.3c108.7-5.5,215.2-5.7,320.6,0
	C418.4,177.8,420.6,173.7,418.7,170.7z"/>
<circle style="fill:#FFFFFC;" cx="89.1" cy="246.5" r="12.2"/>
<circle style="fill:#DEDEDF;" cx="117.3" cy="248.9" r="11.6"/>
<circle style="fill:#4F5565;" cx="75.1" cy="312.3" r="17.7"/>
<circle style="fill:#FFFFFF;" cx="75.1" cy="312.3" r="12.2"/>
<circle style="fill:#FFFFFC;" cx="419.9" cy="246.5" r="12.2"/>
<circle style="fill:#DEDEDF;" cx="391.7" cy="248.9" r="11.6"/>
<circle style="fill:#4F5565;" cx="433.9" cy="312.3" r="17.7"/>
<circle style="fill:#FFFFFF;" cx="433.9" cy="312.3" r="12.2"/>
<path style="fill:#4F5565;" d="M386,331.1c-2.9-11.4-14.1-20.3-25.3-20.3H139c-11.2,0-22.4,8.9-25.3,20.3l-3.4,13.7h279.2L386,331.1
	z"/>
<path style="fill:#646B79;" d="M254.5,164.7c-95.4,0-84.7,10.2-84.7,10.2l10.6,28.8l74,5.3l74-5.3l10.6-28.8
	C339.2,175,349.9,164.7,254.5,164.7z"/>
<path style="fill:#FBD303;" d="M254.5,164.7c-4.4,0-8.5,0-12.5,0.1v43.4l12.5,0.9l12.4-0.9v-43.4C263,164.7,258.9,164.7,254.5,164.7
	z"/>
<g>
</g>
<g>
</g>
<g>
</g>
<g>
</g>
<g>
</g>
<g>
</g>
<g>
</g>
<g>
</g>
<g>
</g>
<g>
</g>
<g>
</g>
<g>
</g>
<g>
</g>
<g>
</g>
<g>
</g>
</svg>
